<?xml version="1.0" encoding="UTF-8" standalone="no"?>
<!DOCTYPE svg PUBLIC "-//W3C//DTD SVG 1.1//EN"
 "http://www.w3.org/Graphics/SVG/1.1/DTD/svg11.dtd">
<!-- Generated by graphviz version 2.36.0 (20140111.2315)
 -->
<!-- Title: dfa1 Pages: 1 -->
<svg width="204pt" height="146pt"
 viewBox="0.00 0.00 204.00 146.00" xmlns="http://www.w3.org/2000/svg" xmlns:xlink="http://www.w3.org/1999/xlink">
<g id="graph0" class="graph" transform="scale(1 1) rotate(0) translate(4 142)">
<title>dfa1</title>
<polygon fill="white" stroke="none" points="-4,4 -4,-142 200,-142 200,4 -4,4"/>
<!-- 2 -->
<g id="node1" class="node"><title>2</title>
<ellipse fill="none" stroke="black" cx="174" cy="-84" rx="18" ry="18"/>
<ellipse fill="none" stroke="black" cx="174" cy="-84" rx="22" ry="22"/>
<text text-anchor="middle" x="174" y="-79.8" font-family="Helvetica,Arial,sans-serif" font-size="14.00">2</text>
</g>
<!-- 2&#45;&gt;2 -->
<g id="edge5" class="edge"><title>2&#45;&gt;2</title>
<path fill="none" stroke="black" d="M165.994,-104.581C164.886,-114.845 167.555,-124 174,-124 178.129,-124 180.708,-120.243 181.737,-114.844"/>
<polygon fill="black" stroke="black" points="185.243,-114.669 182.006,-104.581 178.245,-114.486 185.243,-114.669"/>
<text text-anchor="middle" x="174" y="-126.8" font-family="Helvetica,Arial,sans-serif" font-size="14.00">c</text>
</g>
<!-- {0,2} -->
<g id="node2" class="node"><title>{0,2}</title>
<ellipse fill="none" stroke="black" cx="75" cy="-47" rx="28.14" ry="28.14"/>
<ellipse fill="none" stroke="black" cx="75" cy="-47" rx="32.1163" ry="32.1163"/>
<text text-anchor="middle" x="75" y="-42.8" font-family="Helvetica,Arial,sans-serif" font-size="14.00">{0,2}</text>
</g>
<!-- {0,2}&#45;&gt;2 -->
<g id="edge3" class="edge"><title>{0,2}&#45;&gt;2</title>
<path fill="none" stroke="black" d="M105.366,-58.2016C117.477,-62.8211 131.483,-68.1637 143.597,-72.7846"/>
<polygon fill="black" stroke="black" points="142.655,-76.1709 153.245,-76.4648 145.15,-69.6306 142.655,-76.1709"/>
<text text-anchor="middle" x="130" y="-70.8" font-family="Helvetica,Arial,sans-serif" font-size="14.00">c</text>
</g>
<!-- 1 -->
<g id="node4" class="node"><title>1</title>
<ellipse fill="none" stroke="black" cx="174" cy="-18" rx="18" ry="18"/>
<text text-anchor="middle" x="174" y="-13.8" font-family="Helvetica,Arial,sans-serif" font-size="14.00">1</text>
</g>
<!-- {0,2}&#45;&gt;1 -->
<g id="edge2" class="edge"><title>{0,2}&#45;&gt;1</title>
<path fill="none" stroke="black" d="M106.16,-37.9832C119.107,-34.1122 134.1,-29.6298 146.601,-25.8924"/>
<polygon fill="black" stroke="black" points="147.838,-29.1758 156.416,-22.958 145.833,-22.4691 147.838,-29.1758"/>
<text text-anchor="middle" x="130" y="-34.8" font-family="Helvetica,Arial,sans-serif" font-size="14.00">a</text>
</g>
<!-- ENTRY -->
<g id="node3" class="node"><title>ENTRY</title>
<ellipse fill="black" stroke="black" cx="2" cy="-47" rx="1.8" ry="1.8"/>
</g>
<!-- ENTRY&#45;&gt;{0,2} -->
<g id="edge1" class="edge"><title>ENTRY&#45;&gt;{0,2}</title>
<path fill="none" stroke="black" d="M4.00368,-47C7.46893,-47 19.4376,-47 32.5219,-47"/>
<polygon fill="black" stroke="black" points="32.6227,-50.5001 42.6226,-47 32.6226,-43.5001 32.6227,-50.5001"/>
</g>
<!-- 1&#45;&gt;{0,2} -->
<g id="edge4" class="edge"><title>1&#45;&gt;{0,2}</title>
<path fill="none" stroke="black" d="M156.597,-12.5191C147.425,-10.2888 135.885,-8.88397 126,-12 119.832,-13.9442 113.764,-16.9506 108.097,-20.4024"/>
<polygon fill="black" stroke="black" points="105.936,-17.637 99.5677,-26.1043 109.826,-23.4565 105.936,-17.637"/>
<text text-anchor="middle" x="130" y="-14.8" font-family="Helvetica,Arial,sans-serif" font-size="14.00">b</text>
</g>
</g>
</svg>
