<?xml version="1.0" encoding="UTF-8" standalone="no"?>
<!DOCTYPE svg PUBLIC "-//W3C//DTD SVG 1.1//EN"
 "http://www.w3.org/Graphics/SVG/1.1/DTD/svg11.dtd">
<!-- Generated by graphviz version 2.36.0 (20140111.2315)
 -->
<!-- Title: dfa2 Pages: 1 -->
<svg width="366pt" height="100pt"
 viewBox="0.00 0.00 366.00 100.00" xmlns="http://www.w3.org/2000/svg" xmlns:xlink="http://www.w3.org/1999/xlink">
<g id="graph0" class="graph" transform="scale(1 1) rotate(0) translate(4 96)">
<title>dfa2</title>
<polygon fill="white" stroke="none" points="-4,4 -4,-96 362,-96 362,4 -4,4"/>
<!-- 4 -->
<g id="node1" class="node"><title>4</title>
<ellipse fill="none" stroke="black" cx="336" cy="-32" rx="18" ry="18"/>
<ellipse fill="none" stroke="black" cx="336" cy="-32" rx="22" ry="22"/>
<text text-anchor="middle" x="336" y="-27.8" font-family="Helvetica,Arial,sans-serif" font-size="14.00">4</text>
</g>
<!-- {2,4} -->
<g id="node2" class="node"><title>{2,4}</title>
<ellipse fill="none" stroke="black" cx="135" cy="-32" rx="28.14" ry="28.14"/>
<ellipse fill="none" stroke="black" cx="135" cy="-32" rx="32.1163" ry="32.1163"/>
<text text-anchor="middle" x="135" y="-27.8" font-family="Helvetica,Arial,sans-serif" font-size="14.00">{2,4}</text>
</g>
<!-- {2,3} -->
<g id="node4" class="node"><title>{2,3}</title>
<ellipse fill="none" stroke="black" cx="241" cy="-32" rx="28.1165" ry="28.1165"/>
<text text-anchor="middle" x="241" y="-27.8" font-family="Helvetica,Arial,sans-serif" font-size="14.00">{2,3}</text>
</g>
<!-- {2,4}&#45;&gt;{2,3} -->
<g id="edge2" class="edge"><title>{2,4}&#45;&gt;{2,3}</title>
<path fill="none" stroke="black" d="M167.486,-32C178.471,-32 190.911,-32 202.347,-32"/>
<polygon fill="black" stroke="black" points="202.497,-35.5001 212.497,-32 202.497,-28.5001 202.497,-35.5001"/>
<text text-anchor="middle" x="190" y="-34.8" font-family="Helvetica,Arial,sans-serif" font-size="14.00">a</text>
</g>
<!-- {1,3} -->
<g id="node3" class="node"><title>{1,3}</title>
<ellipse fill="none" stroke="black" cx="29" cy="-32" rx="28.1165" ry="28.1165"/>
<text text-anchor="middle" x="29" y="-27.8" font-family="Helvetica,Arial,sans-serif" font-size="14.00">{1,3}</text>
</g>
<!-- {1,3}&#45;&gt;{2,4} -->
<g id="edge1" class="edge"><title>{1,3}&#45;&gt;{2,4}</title>
<path fill="none" stroke="black" d="M57.3248,-32C68.0307,-32 80.5531,-32 92.3375,-32"/>
<polygon fill="black" stroke="black" points="92.4393,-35.5001 102.439,-32 92.4392,-28.5001 92.4393,-35.5001"/>
<text text-anchor="middle" x="80" y="-34.8" font-family="Helvetica,Arial,sans-serif" font-size="14.00">b</text>
</g>
<!-- {2,3}&#45;&gt;4 -->
<g id="edge4" class="edge"><title>{2,3}&#45;&gt;4</title>
<path fill="none" stroke="black" d="M269.4,-32C280.201,-32 292.665,-32 303.809,-32"/>
<polygon fill="black" stroke="black" points="303.991,-35.5001 313.991,-32 303.991,-28.5001 303.991,-35.5001"/>
<text text-anchor="middle" x="292" y="-34.8" font-family="Helvetica,Arial,sans-serif" font-size="14.00">a</text>
</g>
<!-- {2,3}&#45;&gt;{2,3} -->
<g id="edge3" class="edge"><title>{2,3}&#45;&gt;{2,3}</title>
<path fill="none" stroke="black" d="M231.662,-58.9321C231.247,-69.3451 234.359,-78 241,-78 245.254,-78 248.06,-74.448 249.419,-69.1573"/>
<polygon fill="black" stroke="black" points="252.929,-69.2054 250.338,-58.9321 245.957,-68.5784 252.929,-69.2054"/>
<text text-anchor="middle" x="241" y="-80.8" font-family="Helvetica,Arial,sans-serif" font-size="14.00">a</text>
</g>
</g>
</svg>
