<?xml version="1.0" encoding="UTF-8" standalone="no"?>
<!DOCTYPE svg PUBLIC "-//W3C//DTD SVG 1.1//EN"
 "http://www.w3.org/Graphics/SVG/1.1/DTD/svg11.dtd">
<!-- Generated by graphviz version 2.36.0 (20140111.2315)
 -->
<!-- Title: dfa3 Pages: 1 -->
<svg width="268pt" height="134pt"
 viewBox="0.00 0.00 268.00 134.00" xmlns="http://www.w3.org/2000/svg" xmlns:xlink="http://www.w3.org/1999/xlink">
<g id="graph0" class="graph" transform="scale(1 1) rotate(0) translate(4 130)">
<title>dfa3</title>
<polygon fill="white" stroke="none" points="-4,4 -4,-130 264,-130 264,4 -4,4"/>
<!-- {1,2,4} -->
<g id="node1" class="node"><title>{1,2,4}</title>
<ellipse fill="none" stroke="black" cx="82" cy="-47" rx="35.8482" ry="35.8482"/>
<ellipse fill="none" stroke="black" cx="82" cy="-47" rx="39.8667" ry="39.8667"/>
<text text-anchor="middle" x="82" y="-42.8" font-family="Helvetica,Arial,sans-serif" font-size="14.00">{1,2,4}</text>
</g>
<!-- {1,2,3,4} -->
<g id="node2" class="node"><title>{1,2,3,4}</title>
<ellipse fill="none" stroke="black" cx="213" cy="-47" rx="43.1116" ry="43.1116"/>
<ellipse fill="none" stroke="black" cx="213" cy="-47" rx="47.1165" ry="47.1165"/>
<text text-anchor="middle" x="213" y="-42.8" font-family="Helvetica,Arial,sans-serif" font-size="14.00">{1,2,3,4}</text>
</g>
<!-- {1,2,4}&#45;&gt;{1,2,3,4} -->
<g id="edge2" class="edge"><title>{1,2,4}&#45;&gt;{1,2,3,4}</title>
<path fill="none" stroke="black" d="M121.704,-47C132.273,-47 143.948,-47 155.296,-47"/>
<polygon fill="black" stroke="black" points="155.585,-50.5001 165.585,-47 155.585,-43.5001 155.585,-50.5001"/>
<text text-anchor="middle" x="144" y="-49.8" font-family="Helvetica,Arial,sans-serif" font-size="14.00">a</text>
</g>
<!-- {1,2,3,4}&#45;&gt;{1,2,3,4} -->
<g id="edge3" class="edge"><title>{1,2,3,4}&#45;&gt;{1,2,3,4}</title>
<path fill="none" stroke="black" d="M200.449,-92.5603C201.379,-103.706 205.562,-112 213,-112 217.997,-112 221.525,-108.256 223.585,-102.418"/>
<polygon fill="black" stroke="black" points="227.027,-103.052 225.551,-92.5603 220.162,-101.683 227.027,-103.052"/>
<text text-anchor="middle" x="213" y="-114.8" font-family="Helvetica,Arial,sans-serif" font-size="14.00">a</text>
</g>
<!-- ENTRY -->
<g id="node3" class="node"><title>ENTRY</title>
<ellipse fill="black" stroke="black" cx="2" cy="-47" rx="1.8" ry="1.8"/>
</g>
<!-- ENTRY&#45;&gt;{1,2,4} -->
<g id="edge1" class="edge"><title>ENTRY&#45;&gt;{1,2,4}</title>
<path fill="none" stroke="black" d="M3.87598,-47C7.07692,-47 18.6475,-47 31.8885,-47"/>
<polygon fill="black" stroke="black" points="32.2285,-50.5001 42.2285,-47 32.2285,-43.5001 32.2285,-50.5001"/>
</g>
</g>
</svg>
