<?xml version="1.0" encoding="UTF-8" standalone="no"?>
<!DOCTYPE svg PUBLIC "-//W3C//DTD SVG 1.1//EN"
 "http://www.w3.org/Graphics/SVG/1.1/DTD/svg11.dtd">
<!-- Generated by graphviz version 2.36.0 (20140111.2315)
 -->
<!-- Title: dfa4 Pages: 1 -->
<svg width="412pt" height="138pt"
 viewBox="0.00 0.00 412.00 138.00" xmlns="http://www.w3.org/2000/svg" xmlns:xlink="http://www.w3.org/1999/xlink">
<g id="graph0" class="graph" transform="scale(1 1) rotate(0) translate(4 134)">
<title>dfa4</title>
<polygon fill="white" stroke="none" points="-4,4 -4,-134 408,-134 408,4 -4,4"/>
<!-- {C,D} -->
<g id="node1" class="node"><title>{C,D}</title>
<ellipse fill="none" stroke="black" cx="289" cy="-35" rx="31.4616" ry="31.4616"/>
<ellipse fill="none" stroke="black" cx="289" cy="-35" rx="35.4895" ry="35.4895"/>
<text text-anchor="middle" x="289" y="-30.8" font-family="Helvetica,Arial,sans-serif" font-size="14.00">{C,D}</text>
</g>
<!-- {C,D}&#45;&gt;{C,D} -->
<g id="edge4" class="edge"><title>{C,D}&#45;&gt;{C,D}</title>
<path fill="none" stroke="black" d="M278.503,-68.6409C278.61,-79.4406 282.109,-88 289,-88 293.522,-88 296.583,-84.3138 298.184,-78.7272"/>
<polygon fill="black" stroke="black" points="301.677,-79.0092 299.497,-68.6409 294.735,-78.1053 301.677,-79.0092"/>
<text text-anchor="middle" x="289" y="-90.8" font-family="Helvetica,Arial,sans-serif" font-size="14.00">1</text>
</g>
<!-- C -->
<g id="node5" class="node"><title>C</title>
<ellipse fill="none" stroke="black" cx="386" cy="-72" rx="18" ry="18"/>
<text text-anchor="middle" x="386" y="-67.8" font-family="Helvetica,Arial,sans-serif" font-size="14.00">C</text>
</g>
<!-- {C,D}&#45;&gt;C -->
<g id="edge6" class="edge"><title>{C,D}&#45;&gt;C</title>
<path fill="none" stroke="black" d="M322.163,-47.5265C334.32,-52.2613 347.978,-57.5808 359.448,-62.048"/>
<polygon fill="black" stroke="black" points="358.283,-65.3503 368.871,-65.7182 360.823,-58.8276 358.283,-65.3503"/>
<text text-anchor="middle" x="346" y="-60.8" font-family="Helvetica,Arial,sans-serif" font-size="14.00">0</text>
</g>
<!-- ENTRY -->
<g id="node2" class="node"><title>ENTRY</title>
<ellipse fill="black" stroke="black" cx="2" cy="-59" rx="1.8" ry="1.8"/>
</g>
<!-- {A,C} -->
<g id="node3" class="node"><title>{A,C}</title>
<ellipse fill="none" stroke="black" cx="73" cy="-59" rx="30.5139" ry="30.5139"/>
<text text-anchor="middle" x="73" y="-54.8" font-family="Helvetica,Arial,sans-serif" font-size="14.00">{A,C}</text>
</g>
<!-- ENTRY&#45;&gt;{A,C} -->
<g id="edge1" class="edge"><title>ENTRY&#45;&gt;{A,C}</title>
<path fill="none" stroke="black" d="M3.97541,-59C7.33588,-59 18.9251,-59 31.6091,-59"/>
<polygon fill="black" stroke="black" points="31.8799,-62.5001 41.8799,-59 31.8798,-55.5001 31.8799,-62.5001"/>
</g>
<!-- {A,C}&#45;&gt;{C,D} -->
<g id="edge3" class="edge"><title>{A,C}&#45;&gt;{C,D}</title>
<path fill="none" stroke="black" d="M103.018,-52.1683C116.606,-49.2141 133.057,-45.9855 148,-44 179.792,-39.7759 215.918,-37.5161 243.509,-36.3175"/>
<polygon fill="black" stroke="black" points="243.789,-39.8091 253.639,-35.9081 243.506,-32.8148 243.789,-39.8091"/>
<text text-anchor="middle" x="179" y="-46.8" font-family="Helvetica,Arial,sans-serif" font-size="14.00">1</text>
</g>
<!-- {B,C} -->
<g id="node4" class="node"><title>{B,C}</title>
<ellipse fill="none" stroke="black" cx="179" cy="-98" rx="30.5139" ry="30.5139"/>
<text text-anchor="middle" x="179" y="-93.8" font-family="Helvetica,Arial,sans-serif" font-size="14.00">{B,C}</text>
</g>
<!-- {A,C}&#45;&gt;{B,C} -->
<g id="edge2" class="edge"><title>{A,C}&#45;&gt;{B,C}</title>
<path fill="none" stroke="black" d="M102.144,-69.554C113.936,-73.9762 127.819,-79.182 140.462,-83.9232"/>
<polygon fill="black" stroke="black" points="139.241,-87.2035 149.834,-87.4376 141.699,-80.6491 139.241,-87.2035"/>
<text text-anchor="middle" x="126" y="-82.8" font-family="Helvetica,Arial,sans-serif" font-size="14.00">0</text>
</g>
<!-- {B,C}&#45;&gt;{C,D} -->
<g id="edge7" class="edge"><title>{B,C}&#45;&gt;{C,D}</title>
<path fill="none" stroke="black" d="M205.869,-82.9099C218.892,-75.3132 234.943,-65.9499 249.391,-57.5221"/>
<polygon fill="black" stroke="black" points="251.264,-60.4816 258.138,-52.4196 247.736,-54.4352 251.264,-60.4816"/>
<text text-anchor="middle" x="232" y="-71.8" font-family="Helvetica,Arial,sans-serif" font-size="14.00">1</text>
</g>
<!-- {B,C}&#45;&gt;C -->
<g id="edge5" class="edge"><title>{B,C}&#45;&gt;C</title>
<path fill="none" stroke="black" d="M208.748,-106.727C238.255,-114.275 285.21,-122.34 324,-111 338.47,-106.77 352.771,-97.9428 363.885,-89.7549"/>
<polygon fill="black" stroke="black" points="366.294,-92.3159 372.057,-83.4255 362.008,-86.7816 366.294,-92.3159"/>
<text text-anchor="middle" x="289" y="-118.8" font-family="Helvetica,Arial,sans-serif" font-size="14.00">0</text>
</g>
<!-- C&#45;&gt;{C,D} -->
<g id="edge9" class="edge"><title>C&#45;&gt;{C,D}</title>
<path fill="none" stroke="black" d="M374.662,-57.8964C368.419,-50.562 359.788,-42.259 350,-38 345.163,-35.8952 339.895,-34.505 334.556,-33.6291"/>
<polygon fill="black" stroke="black" points="334.61,-30.115 324.294,-32.5262 333.862,-37.0749 334.61,-30.115"/>
<text text-anchor="middle" x="346" y="-40.8" font-family="Helvetica,Arial,sans-serif" font-size="14.00">1</text>
</g>
<!-- C&#45;&gt;C -->
<g id="edge8" class="edge"><title>C&#45;&gt;C</title>
<path fill="none" stroke="black" d="M378.969,-88.6641C377.406,-98.625 379.75,-108 386,-108 390.004,-108 392.405,-104.152 393.202,-98.7682"/>
<polygon fill="black" stroke="black" points="396.7,-98.6033 393.031,-88.6641 389.701,-98.7219 396.7,-98.6033"/>
<text text-anchor="middle" x="386" y="-110.8" font-family="Helvetica,Arial,sans-serif" font-size="14.00">0</text>
</g>
</g>
</svg>
