<?xml version="1.0" encoding="UTF-8" standalone="no"?>
<!DOCTYPE svg PUBLIC "-//W3C//DTD SVG 1.1//EN"
 "http://www.w3.org/Graphics/SVG/1.1/DTD/svg11.dtd">
<!-- Generated by graphviz version 2.36.0 (20140111.2315)
 -->
<!-- Title: dfa5 Pages: 1 -->
<svg width="342pt" height="173pt"
 viewBox="0.00 0.00 342.00 173.00" xmlns="http://www.w3.org/2000/svg" xmlns:xlink="http://www.w3.org/1999/xlink">
<g id="graph0" class="graph" transform="scale(1 1) rotate(0) translate(4 169)">
<title>dfa5</title>
<polygon fill="white" stroke="none" points="-4,4 -4,-169 338,-169 338,4 -4,4"/>
<!-- {2,3,4} -->
<g id="node1" class="node"><title>{2,3,4}</title>
<ellipse fill="none" stroke="black" cx="82" cy="-39" rx="35.8482" ry="35.8482"/>
<ellipse fill="none" stroke="black" cx="82" cy="-39" rx="39.8667" ry="39.8667"/>
<text text-anchor="middle" x="82" y="-34.8" font-family="Helvetica,Arial,sans-serif" font-size="14.00">{2,3,4}</text>
</g>
<!-- {2,3,4}&#45;&gt;{2,3,4} -->
<g id="edge7" class="edge"><title>{2,3,4}&#45;&gt;{2,3,4}</title>
<path fill="none" stroke="black" d="M71.1788,-77.0922C71.6527,-87.789 75.2598,-96 82,-96 86.4233,-96 89.4972,-92.4638 91.2218,-87.0095"/>
<polygon fill="black" stroke="black" points="94.6843,-87.5219 92.8212,-77.0922 87.7736,-86.4073 94.6843,-87.5219"/>
<text text-anchor="middle" x="82" y="-98.8" font-family="Helvetica,Arial,sans-serif" font-size="14.00">b</text>
</g>
<!-- {0,1} -->
<g id="node5" class="node"><title>{0,1}</title>
<ellipse fill="none" stroke="black" cx="195" cy="-104" rx="28.1165" ry="28.1165"/>
<text text-anchor="middle" x="195" y="-99.8" font-family="Helvetica,Arial,sans-serif" font-size="14.00">{0,1}</text>
</g>
<!-- {2,3,4}&#45;&gt;{0,1} -->
<g id="edge8" class="edge"><title>{2,3,4}&#45;&gt;{0,1}</title>
<path fill="none" stroke="black" d="M116.605,-58.6785C130.738,-66.9544 147.126,-76.5513 161.174,-84.7776"/>
<polygon fill="black" stroke="black" points="159.622,-87.9249 170.02,-89.9579 163.16,-81.8844 159.622,-87.9249"/>
<text text-anchor="middle" x="144" y="-78.8" font-family="Helvetica,Arial,sans-serif" font-size="14.00">a</text>
</g>
<!-- {2,3} -->
<g id="node2" class="node"><title>{2,3}</title>
<ellipse fill="none" stroke="black" cx="301" cy="-72" rx="28.14" ry="28.14"/>
<ellipse fill="none" stroke="black" cx="301" cy="-72" rx="32.1163" ry="32.1163"/>
<text text-anchor="middle" x="301" y="-67.8" font-family="Helvetica,Arial,sans-serif" font-size="14.00">{2,3}</text>
</g>
<!-- {2,3}&#45;&gt;{2,3,4} -->
<g id="edge6" class="edge"><title>{2,3}&#45;&gt;{2,3,4}</title>
<path fill="none" stroke="black" d="M269.525,-63.2996C255.724,-59.6401 239.142,-55.63 224,-53 193.59,-47.7182 159.118,-44.2507 131.872,-42.088"/>
<polygon fill="black" stroke="black" points="132.043,-38.591 121.806,-41.3219 131.512,-45.5708 132.043,-38.591"/>
<text text-anchor="middle" x="195" y="-55.8" font-family="Helvetica,Arial,sans-serif" font-size="14.00">b</text>
</g>
<!-- {2,3}&#45;&gt;{0,1} -->
<g id="edge5" class="edge"><title>{2,3}&#45;&gt;{0,1}</title>
<path fill="none" stroke="black" d="M269.029,-66.9749C260.122,-66.5809 250.517,-67.1941 242,-70 235.81,-72.0393 229.771,-75.2673 224.212,-78.9406"/>
<polygon fill="black" stroke="black" points="221.947,-76.2599 215.919,-84.9726 226.065,-81.9208 221.947,-76.2599"/>
<text text-anchor="middle" x="246" y="-72.8" font-family="Helvetica,Arial,sans-serif" font-size="14.00">a</text>
</g>
<!-- ENTRY -->
<g id="node3" class="node"><title>ENTRY</title>
<ellipse fill="black" stroke="black" cx="2" cy="-147" rx="1.8" ry="1.8"/>
</g>
<!-- 0 -->
<g id="node4" class="node"><title>0</title>
<ellipse fill="none" stroke="black" cx="82" cy="-147" rx="18" ry="18"/>
<text text-anchor="middle" x="82" y="-142.8" font-family="Helvetica,Arial,sans-serif" font-size="14.00">0</text>
</g>
<!-- ENTRY&#45;&gt;0 -->
<g id="edge1" class="edge"><title>ENTRY&#45;&gt;0</title>
<path fill="none" stroke="black" d="M3.87598,-147C8.78475,-147 33.3768,-147 53.491,-147"/>
<polygon fill="black" stroke="black" points="53.7619,-150.5 63.7618,-147 53.7618,-143.5 53.7619,-150.5"/>
</g>
<!-- 0&#45;&gt;{0,1} -->
<g id="edge2" class="edge"><title>0&#45;&gt;{0,1}</title>
<path fill="none" stroke="black" d="M99.3784,-140.655C114.926,-134.632 138.807,-125.381 158.688,-117.68"/>
<polygon fill="black" stroke="black" points="160.011,-120.92 168.072,-114.044 157.483,-114.393 160.011,-120.92"/>
<text text-anchor="middle" x="144" y="-126.8" font-family="Helvetica,Arial,sans-serif" font-size="14.00">a</text>
</g>
<!-- {0,1}&#45;&gt;{2,3} -->
<g id="edge4" class="edge"><title>{0,1}&#45;&gt;{2,3}</title>
<path fill="none" stroke="black" d="M222.244,-95.925C233.639,-92.4187 247.242,-88.2331 259.861,-84.3504"/>
<polygon fill="black" stroke="black" points="261.181,-87.6064 269.709,-81.3202 259.122,-80.9159 261.181,-87.6064"/>
<text text-anchor="middle" x="246" y="-91.8" font-family="Helvetica,Arial,sans-serif" font-size="14.00">b</text>
</g>
<!-- {0,1}&#45;&gt;{0,1} -->
<g id="edge3" class="edge"><title>{0,1}&#45;&gt;{0,1}</title>
<path fill="none" stroke="black" d="M185.662,-130.932C185.247,-141.345 188.359,-150 195,-150 199.254,-150 202.06,-146.448 203.419,-141.157"/>
<polygon fill="black" stroke="black" points="206.929,-141.205 204.338,-130.932 199.957,-140.578 206.929,-141.205"/>
<text text-anchor="middle" x="195" y="-152.8" font-family="Helvetica,Arial,sans-serif" font-size="14.00">a</text>
</g>
</g>
</svg>
