<?xml version="1.0" encoding="UTF-8" standalone="no"?>
<!DOCTYPE svg PUBLIC "-//W3C//DTD SVG 1.1//EN"
 "http://www.w3.org/Graphics/SVG/1.1/DTD/svg11.dtd">
<!-- Generated by graphviz version 2.36.0 (20140111.2315)
 -->
<!-- Title: dfa6 Pages: 1 -->
<svg width="270pt" height="157pt"
 viewBox="0.00 0.00 270.00 157.00" xmlns="http://www.w3.org/2000/svg" xmlns:xlink="http://www.w3.org/1999/xlink">
<g id="graph0" class="graph" transform="scale(1 1) rotate(0) translate(4 153)">
<title>dfa6</title>
<polygon fill="white" stroke="none" points="-4,4 -4,-153 266,-153 266,4 -4,4"/>
<!-- {1,2,3} -->
<g id="node1" class="node"><title>{1,2,3}</title>
<ellipse fill="none" stroke="black" cx="40" cy="-39" rx="35.8482" ry="35.8482"/>
<ellipse fill="none" stroke="black" cx="40" cy="-39" rx="39.8667" ry="39.8667"/>
<text text-anchor="middle" x="40" y="-34.8" font-family="Helvetica,Arial,sans-serif" font-size="14.00">{1,2,3}</text>
</g>
<!-- {1,2,3}&#45;&gt;{1,2,3} -->
<g id="edge6" class="edge"><title>{1,2,3}&#45;&gt;{1,2,3}</title>
<path fill="none" stroke="black" d="M28.4204,-76.822C28.8745,-87.6504 32.7344,-96 40,-96 44.7681,-96 48.0694,-92.4041 49.904,-86.8716"/>
<polygon fill="black" stroke="black" points="53.3872,-87.2615 51.5796,-76.822 46.4825,-86.1102 53.3872,-87.2615"/>
<text text-anchor="middle" x="40" y="-98.8" font-family="Helvetica,Arial,sans-serif" font-size="14.00">b</text>
</g>
<!-- 1 -->
<g id="node3" class="node"><title>1</title>
<ellipse fill="none" stroke="black" cx="142" cy="-99" rx="18" ry="18"/>
<text text-anchor="middle" x="142" y="-94.8" font-family="Helvetica,Arial,sans-serif" font-size="14.00">1</text>
</g>
<!-- {1,2,3}&#45;&gt;1 -->
<g id="edge7" class="edge"><title>{1,2,3}&#45;&gt;1</title>
<path fill="none" stroke="black" d="M74.2986,-58.9791C88.4716,-67.483 104.667,-77.2005 117.551,-84.9304"/>
<polygon fill="black" stroke="black" points="115.894,-88.0181 126.27,-90.1619 119.496,-82.0157 115.894,-88.0181"/>
<text text-anchor="middle" x="102" y="-79.8" font-family="Helvetica,Arial,sans-serif" font-size="14.00">a</text>
</g>
<!-- ENTRY -->
<g id="node2" class="node"><title>ENTRY</title>
<ellipse fill="black" stroke="black" cx="40" cy="-130" rx="1.8" ry="1.8"/>
</g>
<!-- ENTRY&#45;&gt;1 -->
<g id="edge1" class="edge"><title>ENTRY&#45;&gt;1</title>
<path fill="none" stroke="black" d="M41.9692,-129.743C46.3722,-128.571 64.9263,-123.595 80,-119 91.5527,-115.479 104.255,-111.355 115.064,-107.769"/>
<polygon fill="black" stroke="black" points="116.372,-111.023 124.748,-104.534 114.154,-104.383 116.372,-111.023"/>
</g>
<!-- 1&#45;&gt;1 -->
<g id="edge2" class="edge"><title>1&#45;&gt;1</title>
<path fill="none" stroke="black" d="M134.969,-115.664C133.406,-125.625 135.75,-135 142,-135 146.004,-135 148.405,-131.152 149.202,-125.768"/>
<polygon fill="black" stroke="black" points="152.7,-125.603 149.031,-115.664 145.701,-125.722 152.7,-125.603"/>
<text text-anchor="middle" x="142" y="-137.8" font-family="Helvetica,Arial,sans-serif" font-size="14.00">a</text>
</g>
<!-- {1,2} -->
<g id="node4" class="node"><title>{1,2}</title>
<ellipse fill="none" stroke="black" cx="233" cy="-72" rx="28.1165" ry="28.1165"/>
<text text-anchor="middle" x="233" y="-67.8" font-family="Helvetica,Arial,sans-serif" font-size="14.00">{1,2}</text>
</g>
<!-- 1&#45;&gt;{1,2} -->
<g id="edge3" class="edge"><title>1&#45;&gt;{1,2}</title>
<path fill="none" stroke="black" d="M159.793,-94.4938C167.759,-92.3104 177.394,-89.6026 186,-87 189.317,-85.997 192.759,-84.9277 196.2,-83.8396"/>
<polygon fill="black" stroke="black" points="197.337,-87.1505 205.79,-80.7626 195.198,-80.4852 197.337,-87.1505"/>
<text text-anchor="middle" x="182" y="-91.8" font-family="Helvetica,Arial,sans-serif" font-size="14.00">b</text>
</g>
<!-- {1,2}&#45;&gt;{1,2,3} -->
<g id="edge5" class="edge"><title>{1,2}&#45;&gt;{1,2,3}</title>
<path fill="none" stroke="black" d="M205.03,-66.5322C191.529,-63.852 174.922,-60.6412 160,-58 136.791,-53.892 110.963,-49.72 89.3167,-46.3359"/>
<polygon fill="black" stroke="black" points="89.7925,-42.868 79.3736,-44.7908 88.7175,-49.7849 89.7925,-42.868"/>
<text text-anchor="middle" x="142" y="-60.8" font-family="Helvetica,Arial,sans-serif" font-size="14.00">b</text>
</g>
<!-- {1,2}&#45;&gt;1 -->
<g id="edge4" class="edge"><title>{1,2}&#45;&gt;1</title>
<path fill="none" stroke="black" d="M205.269,-66.3089C196.364,-65.5055 186.542,-65.8401 178,-69 172.134,-71.1701 166.587,-74.8114 161.712,-78.8232"/>
<polygon fill="black" stroke="black" points="159.193,-76.3845 154.203,-85.7305 163.932,-81.5364 159.193,-76.3845"/>
<text text-anchor="middle" x="182" y="-71.8" font-family="Helvetica,Arial,sans-serif" font-size="14.00">a</text>
</g>
</g>
</svg>
