<?xml version="1.0" encoding="UTF-8" standalone="no"?>
<!DOCTYPE svg PUBLIC "-//W3C//DTD SVG 1.1//EN"
 "http://www.w3.org/Graphics/SVG/1.1/DTD/svg11.dtd">
<!-- Generated by graphviz version 2.36.0 (20140111.2315)
 -->
<!-- Title: nfa1 Pages: 1 -->
<svg width="254pt" height="113pt"
 viewBox="0.00 0.00 254.00 113.00" xmlns="http://www.w3.org/2000/svg" xmlns:xlink="http://www.w3.org/1999/xlink">
<g id="graph0" class="graph" transform="scale(1 1) rotate(0) translate(4 109)">
<title>nfa1</title>
<polygon fill="white" stroke="none" points="-4,4 -4,-109 250,-109 250,4 -4,4"/>
<!-- 2 -->
<g id="node1" class="node"><title>2</title>
<ellipse fill="none" stroke="black" cx="224" cy="-51" rx="18" ry="18"/>
<ellipse fill="none" stroke="black" cx="224" cy="-51" rx="22" ry="22"/>
<text text-anchor="middle" x="224" y="-46.8" font-family="Helvetica,Arial,sans-serif" font-size="14.00">2</text>
</g>
<!-- 2&#45;&gt;2 -->
<g id="edge6" class="edge"><title>2&#45;&gt;2</title>
<path fill="none" stroke="black" d="M215.994,-71.5808C214.886,-81.8447 217.555,-91 224,-91 228.129,-91 230.708,-87.2427 231.737,-81.8436"/>
<polygon fill="black" stroke="black" points="235.243,-81.6691 232.006,-71.5808 228.245,-81.4857 235.243,-81.6691"/>
<text text-anchor="middle" x="224" y="-93.8" font-family="Helvetica,Arial,sans-serif" font-size="14.00">c</text>
</g>
<!-- ENTRY -->
<g id="node2" class="node"><title>ENTRY</title>
<ellipse fill="black" stroke="black" cx="2" cy="-43" rx="1.8" ry="1.8"/>
</g>
<!-- 0 -->
<g id="node3" class="node"><title>0</title>
<ellipse fill="none" stroke="black" cx="60" cy="-43" rx="18" ry="18"/>
<text text-anchor="middle" x="60" y="-38.8" font-family="Helvetica,Arial,sans-serif" font-size="14.00">0</text>
</g>
<!-- ENTRY&#45;&gt;0 -->
<g id="edge1" class="edge"><title>ENTRY&#45;&gt;0</title>
<path fill="none" stroke="black" d="M3.97198,-43C7.43184,-43 19.5845,-43 31.5919,-43"/>
<polygon fill="black" stroke="black" points="31.8844,-46.5001 41.8843,-43 31.8843,-39.5001 31.8844,-46.5001"/>
</g>
<!-- 0&#45;&gt;2 -->
<g id="edge5" class="edge"><title>0&#45;&gt;2</title>
<path fill="none" stroke="black" d="M77.6477,-46.8948C83.4264,-48.0959 89.969,-49.2885 96,-50 134.864,-54.5853 144.879,-54.0024 184,-53 186.55,-52.9347 189.193,-52.8453 191.846,-52.7405"/>
<polygon fill="black" stroke="black" points="192.129,-56.2313 201.958,-52.2769 191.808,-49.2386 192.129,-56.2313"/>
<text text-anchor="middle" x="140" y="-55.8" font-family="Helvetica,Arial,sans-serif" font-size="14.00">ε</text>
</g>
<!-- 1 -->
<g id="node4" class="node"><title>1</title>
<ellipse fill="none" stroke="black" cx="140" cy="-18" rx="18" ry="18"/>
<text text-anchor="middle" x="140" y="-13.8" font-family="Helvetica,Arial,sans-serif" font-size="14.00">1</text>
</g>
<!-- 0&#45;&gt;1 -->
<g id="edge2" class="edge"><title>0&#45;&gt;1</title>
<path fill="none" stroke="black" d="M77.5418,-37.6981C87.8489,-34.3946 101.331,-30.0735 113.04,-26.3205"/>
<polygon fill="black" stroke="black" points="114.295,-29.5937 122.75,-23.2085 112.158,-22.9278 114.295,-29.5937"/>
<text text-anchor="middle" x="100" y="-34.8" font-family="Helvetica,Arial,sans-serif" font-size="14.00">a</text>
</g>
<!-- 1&#45;&gt;2 -->
<g id="edge4" class="edge"><title>1&#45;&gt;2</title>
<path fill="none" stroke="black" d="M157.201,-24.5197C167.66,-28.729 181.569,-34.3264 193.903,-39.2904"/>
<polygon fill="black" stroke="black" points="192.779,-42.6105 203.362,-43.097 195.392,-36.1166 192.779,-42.6105"/>
<text text-anchor="middle" x="180" y="-37.8" font-family="Helvetica,Arial,sans-serif" font-size="14.00">b</text>
</g>
<!-- 1&#45;&gt;0 -->
<g id="edge3" class="edge"><title>1&#45;&gt;0</title>
<path fill="none" stroke="black" d="M122.648,-12.0039C114.434,-9.91097 104.458,-8.79305 96,-12 90.0681,-14.2493 84.4959,-18.0146 79.6168,-22.1606"/>
<polygon fill="black" stroke="black" points="76.9493,-19.8675 72.1186,-29.2969 81.7752,-24.9381 76.9493,-19.8675"/>
<text text-anchor="middle" x="100" y="-14.8" font-family="Helvetica,Arial,sans-serif" font-size="14.00">b</text>
</g>
</g>
</svg>
