<?xml version="1.0" encoding="UTF-8" standalone="no"?>
<!DOCTYPE svg PUBLIC "-//W3C//DTD SVG 1.1//EN"
 "http://www.w3.org/Graphics/SVG/1.1/DTD/svg11.dtd">
<!-- Generated by graphviz version 2.36.0 (20140111.2315)
 -->
<!-- Title: nfa2 Pages: 1 -->
<svg width="334pt" height="110pt"
 viewBox="0.00 0.00 334.00 110.00" xmlns="http://www.w3.org/2000/svg" xmlns:xlink="http://www.w3.org/1999/xlink">
<g id="graph0" class="graph" transform="scale(1 1) rotate(0) translate(4 106)">
<title>nfa2</title>
<polygon fill="white" stroke="none" points="-4,4 -4,-106 330,-106 330,4 -4,4"/>
<!-- 4 -->
<g id="node1" class="node"><title>4</title>
<ellipse fill="none" stroke="black" cx="304" cy="-22" rx="18" ry="18"/>
<ellipse fill="none" stroke="black" cx="304" cy="-22" rx="22" ry="22"/>
<text text-anchor="middle" x="304" y="-17.8" font-family="Helvetica,Arial,sans-serif" font-size="14.00">4</text>
</g>
<!-- ENTRY -->
<g id="node2" class="node"><title>ENTRY</title>
<ellipse fill="black" stroke="black" cx="2" cy="-18" rx="1.8" ry="1.8"/>
</g>
<!-- 1 -->
<g id="node3" class="node"><title>1</title>
<ellipse fill="none" stroke="black" cx="60" cy="-18" rx="18" ry="18"/>
<text text-anchor="middle" x="60" y="-13.8" font-family="Helvetica,Arial,sans-serif" font-size="14.00">1</text>
</g>
<!-- ENTRY&#45;&gt;1 -->
<g id="edge1" class="edge"><title>ENTRY&#45;&gt;1</title>
<path fill="none" stroke="black" d="M3.97198,-18C7.43184,-18 19.5845,-18 31.5919,-18"/>
<polygon fill="black" stroke="black" points="31.8844,-21.5001 41.8843,-18 31.8843,-14.5001 31.8844,-21.5001"/>
</g>
<!-- 2 -->
<g id="node4" class="node"><title>2</title>
<ellipse fill="none" stroke="black" cx="140" cy="-52" rx="18" ry="18"/>
<text text-anchor="middle" x="140" y="-47.8" font-family="Helvetica,Arial,sans-serif" font-size="14.00">2</text>
</g>
<!-- 1&#45;&gt;2 -->
<g id="edge2" class="edge"><title>1&#45;&gt;2</title>
<path fill="none" stroke="black" d="M76.7845,-24.8804C87.4626,-29.535 101.791,-35.7808 114.006,-41.1053"/>
<polygon fill="black" stroke="black" points="112.673,-44.3424 123.239,-45.1298 115.471,-37.9255 112.673,-44.3424"/>
<text text-anchor="middle" x="100" y="-38.8" font-family="Helvetica,Arial,sans-serif" font-size="14.00">b</text>
</g>
<!-- 3 -->
<g id="node5" class="node"><title>3</title>
<ellipse fill="none" stroke="black" cx="220" cy="-22" rx="18" ry="18"/>
<text text-anchor="middle" x="220" y="-17.8" font-family="Helvetica,Arial,sans-serif" font-size="14.00">3</text>
</g>
<!-- 1&#45;&gt;3 -->
<g id="edge3" class="edge"><title>1&#45;&gt;3</title>
<path fill="none" stroke="black" d="M77.8367,-15.1393C97.1941,-12.2323 129.916,-8.48807 158,-11 169.335,-12.0138 181.714,-14.0671 192.341,-16.128"/>
<polygon fill="black" stroke="black" points="191.782,-19.5861 202.28,-18.1533 193.18,-12.727 191.782,-19.5861"/>
<text text-anchor="middle" x="140" y="-13.8" font-family="Helvetica,Arial,sans-serif" font-size="14.00">ε</text>
</g>
<!-- 2&#45;&gt;2 -->
<g id="edge4" class="edge"><title>2&#45;&gt;2</title>
<path fill="none" stroke="black" d="M132.969,-68.6641C131.406,-78.625 133.75,-88 140,-88 144.004,-88 146.405,-84.1525 147.202,-78.7682"/>
<polygon fill="black" stroke="black" points="150.7,-78.6033 147.031,-68.6641 143.701,-78.7219 150.7,-78.6033"/>
<text text-anchor="middle" x="140" y="-90.8" font-family="Helvetica,Arial,sans-serif" font-size="14.00">a</text>
</g>
<!-- 2&#45;&gt;3 -->
<g id="edge5" class="edge"><title>2&#45;&gt;3</title>
<path fill="none" stroke="black" d="M157.162,-45.784C167.62,-41.7615 181.462,-36.4379 193.397,-31.8472"/>
<polygon fill="black" stroke="black" points="194.782,-35.0646 202.859,-28.2081 192.269,-28.5312 194.782,-35.0646"/>
<text text-anchor="middle" x="180" y="-39.8" font-family="Helvetica,Arial,sans-serif" font-size="14.00">a</text>
</g>
<!-- 3&#45;&gt;4 -->
<g id="edge6" class="edge"><title>3&#45;&gt;4</title>
<path fill="none" stroke="black" d="M238.39,-22C248.108,-22 260.511,-22 271.847,-22"/>
<polygon fill="black" stroke="black" points="271.85,-25.5001 281.85,-22 271.85,-18.5001 271.85,-25.5001"/>
<text text-anchor="middle" x="260" y="-24.8" font-family="Helvetica,Arial,sans-serif" font-size="14.00">b</text>
</g>
</g>
</svg>
