<?xml version="1.0" encoding="UTF-8" standalone="no"?>
<!DOCTYPE svg PUBLIC "-//W3C//DTD SVG 1.1//EN"
 "http://www.w3.org/Graphics/SVG/1.1/DTD/svg11.dtd">
<!-- Generated by graphviz version 2.36.0 (20140111.2315)
 -->
<!-- Title: nfa3 Pages: 1 -->
<svg width="292pt" height="106pt"
 viewBox="0.00 0.00 292.00 106.00" xmlns="http://www.w3.org/2000/svg" xmlns:xlink="http://www.w3.org/1999/xlink">
<g id="graph0" class="graph" transform="scale(1 1) rotate(0) translate(4 102)">
<title>nfa3</title>
<polygon fill="white" stroke="none" points="-4,4 -4,-102 288,-102 288,4 -4,4"/>
<!-- 4 -->
<g id="node1" class="node"><title>4</title>
<ellipse fill="none" stroke="black" cx="22" cy="-31" rx="18" ry="18"/>
<ellipse fill="none" stroke="black" cx="22" cy="-31" rx="22" ry="22"/>
<text text-anchor="middle" x="22" y="-26.8" font-family="Helvetica,Arial,sans-serif" font-size="14.00">4</text>
</g>
<!-- 1 -->
<g id="node3" class="node"><title>1</title>
<ellipse fill="none" stroke="black" cx="106" cy="-65" rx="18" ry="18"/>
<text text-anchor="middle" x="106" y="-60.8" font-family="Helvetica,Arial,sans-serif" font-size="14.00">1</text>
</g>
<!-- 4&#45;&gt;1 -->
<g id="edge6" class="edge"><title>4&#45;&gt;1</title>
<path fill="none" stroke="black" d="M43.7976,-27.0015C52.2191,-26.2778 61.8565,-26.6268 70,-30 76.8277,-32.8281 83.0179,-37.706 88.2285,-42.9373"/>
<polygon fill="black" stroke="black" points="85.8504,-45.529 95.1216,-50.657 91.0718,-40.8667 85.8504,-45.529"/>
<text text-anchor="middle" x="66" y="-32.8" font-family="Helvetica,Arial,sans-serif" font-size="14.00">ε</text>
</g>
<!-- ENTRY -->
<g id="node2" class="node"><title>ENTRY</title>
<ellipse fill="black" stroke="black" cx="22" cy="-97" rx="1.8" ry="1.8"/>
</g>
<!-- ENTRY&#45;&gt;1 -->
<g id="edge1" class="edge"><title>ENTRY&#45;&gt;1</title>
<path fill="none" stroke="black" d="M24.1901,-96.7319C29.5919,-95.4972 52.3051,-90.1139 70,-83 73.57,-81.5647 77.263,-79.8899 80.8521,-78.1504"/>
<polygon fill="black" stroke="black" points="82.6317,-81.1719 89.9542,-73.5148 79.4549,-74.9343 82.6317,-81.1719"/>
</g>
<!-- 1&#45;&gt;4 -->
<g id="edge5" class="edge"><title>1&#45;&gt;4</title>
<path fill="none" stroke="black" d="M89.1714,-58.4369C78.7492,-54.1155 64.7873,-48.3264 52.3749,-43.1798"/>
<polygon fill="black" stroke="black" points="53.4279,-39.8276 42.8499,-39.2305 50.7468,-46.2938 53.4279,-39.8276"/>
<text text-anchor="middle" x="66" y="-53.8" font-family="Helvetica,Arial,sans-serif" font-size="14.00">ε</text>
</g>
<!-- 2 -->
<g id="node4" class="node"><title>2</title>
<ellipse fill="none" stroke="black" cx="186" cy="-47" rx="18" ry="18"/>
<text text-anchor="middle" x="186" y="-42.8" font-family="Helvetica,Arial,sans-serif" font-size="14.00">2</text>
</g>
<!-- 1&#45;&gt;2 -->
<g id="edge2" class="edge"><title>1&#45;&gt;2</title>
<path fill="none" stroke="black" d="M123.925,-61.0943C134.01,-58.7669 147.032,-55.7617 158.46,-53.1246"/>
<polygon fill="black" stroke="black" points="159.419,-56.4953 168.376,-50.8363 157.845,-49.6746 159.419,-56.4953"/>
<text text-anchor="middle" x="146" y="-59.8" font-family="Helvetica,Arial,sans-serif" font-size="14.00">ε</text>
</g>
<!-- 3 -->
<g id="node5" class="node"><title>3</title>
<ellipse fill="none" stroke="black" cx="266" cy="-18" rx="18" ry="18"/>
<text text-anchor="middle" x="266" y="-13.8" font-family="Helvetica,Arial,sans-serif" font-size="14.00">3</text>
</g>
<!-- 2&#45;&gt;3 -->
<g id="edge3" class="edge"><title>2&#45;&gt;3</title>
<path fill="none" stroke="black" d="M203.162,-40.9912C213.62,-37.1028 227.462,-31.9566 239.397,-27.5189"/>
<polygon fill="black" stroke="black" points="240.706,-30.7667 248.859,-24.0011 238.266,-24.2055 240.706,-30.7667"/>
<text text-anchor="middle" x="226" y="-36.8" font-family="Helvetica,Arial,sans-serif" font-size="14.00">a</text>
</g>
<!-- 3&#45;&gt;4 -->
<g id="edge4" class="edge"><title>3&#45;&gt;4</title>
<path fill="none" stroke="black" d="M247.828,-17.6059C212.78,-17.0001 130.531,-16.5935 62,-24 59.4267,-24.2781 56.7675,-24.6257 54.103,-25.0163"/>
<polygon fill="black" stroke="black" points="53.2726,-21.6057 43.9721,-26.6801 54.4071,-28.5131 53.2726,-21.6057"/>
<text text-anchor="middle" x="146" y="-21.8" font-family="Helvetica,Arial,sans-serif" font-size="14.00">ε</text>
</g>
</g>
</svg>
