<?xml version="1.0" encoding="UTF-8" standalone="no"?>
<!DOCTYPE svg PUBLIC "-//W3C//DTD SVG 1.1//EN"
 "http://www.w3.org/Graphics/SVG/1.1/DTD/svg11.dtd">
<!-- Generated by graphviz version 2.36.0 (20140111.2315)
 -->
<!-- Title: nfa4 Pages: 1 -->
<svg width="254pt" height="130pt"
 viewBox="0.00 0.00 254.00 130.00" xmlns="http://www.w3.org/2000/svg" xmlns:xlink="http://www.w3.org/1999/xlink">
<g id="graph0" class="graph" transform="scale(1 1) rotate(0) translate(4 126)">
<title>nfa4</title>
<polygon fill="white" stroke="none" points="-4,4 -4,-126 250,-126 250,4 -4,4"/>
<!-- D -->
<g id="node1" class="node"><title>D</title>
<ellipse fill="none" stroke="black" cx="224" cy="-66" rx="18" ry="18"/>
<ellipse fill="none" stroke="black" cx="224" cy="-66" rx="22" ry="22"/>
<text text-anchor="middle" x="224" y="-61.8" font-family="Helvetica,Arial,sans-serif" font-size="14.00">D</text>
</g>
<!-- ENTRY -->
<g id="node2" class="node"><title>ENTRY</title>
<ellipse fill="black" stroke="black" cx="2" cy="-48" rx="1.8" ry="1.8"/>
</g>
<!-- A -->
<g id="node3" class="node"><title>A</title>
<ellipse fill="none" stroke="black" cx="60" cy="-48" rx="18" ry="18"/>
<text text-anchor="middle" x="60" y="-43.8" font-family="Helvetica,Arial,sans-serif" font-size="14.00">A</text>
</g>
<!-- ENTRY&#45;&gt;A -->
<g id="edge1" class="edge"><title>ENTRY&#45;&gt;A</title>
<path fill="none" stroke="black" d="M3.97198,-48C7.43184,-48 19.5845,-48 31.5919,-48"/>
<polygon fill="black" stroke="black" points="31.8844,-51.5001 41.8843,-48 31.8843,-44.5001 31.8844,-51.5001"/>
</g>
<!-- B -->
<g id="node4" class="node"><title>B</title>
<ellipse fill="none" stroke="black" cx="140" cy="-104" rx="18" ry="18"/>
<text text-anchor="middle" x="140" y="-99.8" font-family="Helvetica,Arial,sans-serif" font-size="14.00">B</text>
</g>
<!-- A&#45;&gt;B -->
<g id="edge2" class="edge"><title>A&#45;&gt;B</title>
<path fill="none" stroke="black" d="M75.3064,-58.2713C86.8512,-66.5599 103.3,-78.3695 116.59,-87.911"/>
<polygon fill="black" stroke="black" points="114.62,-90.8049 124.784,-93.7939 118.702,-85.1186 114.62,-90.8049"/>
<text text-anchor="middle" x="100" y="-79.8" font-family="Helvetica,Arial,sans-serif" font-size="14.00">0</text>
</g>
<!-- C -->
<g id="node5" class="node"><title>C</title>
<ellipse fill="none" stroke="black" cx="140" cy="-18" rx="18" ry="18"/>
<text text-anchor="middle" x="140" y="-13.8" font-family="Helvetica,Arial,sans-serif" font-size="14.00">C</text>
</g>
<!-- A&#45;&gt;C -->
<g id="edge4" class="edge"><title>A&#45;&gt;C</title>
<path fill="none" stroke="black" d="M77.1617,-41.784C87.62,-37.7615 101.462,-32.4379 113.397,-27.8472"/>
<polygon fill="black" stroke="black" points="114.782,-31.0646 122.859,-24.2081 112.269,-24.5312 114.782,-31.0646"/>
<text text-anchor="middle" x="100" y="-36.8" font-family="Helvetica,Arial,sans-serif" font-size="14.00">ε</text>
</g>
<!-- B&#45;&gt;D -->
<g id="edge3" class="edge"><title>B&#45;&gt;D</title>
<path fill="none" stroke="black" d="M156.81,-96.6732C167.491,-91.7236 181.896,-85.0483 194.54,-79.1889"/>
<polygon fill="black" stroke="black" points="196.173,-82.2896 203.775,-74.9093 193.23,-75.9384 196.173,-82.2896"/>
<text text-anchor="middle" x="180" y="-89.8" font-family="Helvetica,Arial,sans-serif" font-size="14.00">1</text>
</g>
<!-- C&#45;&gt;D -->
<g id="edge6" class="edge"><title>C&#45;&gt;D</title>
<path fill="none" stroke="black" d="M156.04,-26.8039C167.16,-33.313 182.607,-42.3555 195.863,-50.1151"/>
<polygon fill="black" stroke="black" points="194.212,-53.2041 204.61,-55.2353 197.748,-47.1629 194.212,-53.2041"/>
<text text-anchor="middle" x="180" y="-44.8" font-family="Helvetica,Arial,sans-serif" font-size="14.00">1</text>
</g>
<!-- C&#45;&gt;C -->
<g id="edge5" class="edge"><title>C&#45;&gt;C</title>
<path fill="none" stroke="black" d="M132.969,-34.6641C131.406,-44.625 133.75,-54 140,-54 144.004,-54 146.405,-50.1525 147.202,-44.7682"/>
<polygon fill="black" stroke="black" points="150.7,-44.6033 147.031,-34.6641 143.701,-44.7219 150.7,-44.6033"/>
<text text-anchor="middle" x="140" y="-56.8" font-family="Helvetica,Arial,sans-serif" font-size="14.00">0,1</text>
</g>
</g>
</svg>
