<?xml version="1.0" encoding="UTF-8" standalone="no"?>
<!DOCTYPE svg PUBLIC "-//W3C//DTD SVG 1.1//EN"
 "http://www.w3.org/Graphics/SVG/1.1/DTD/svg11.dtd">
<!-- Generated by graphviz version 2.36.0 (20140111.2315)
 -->
<!-- Title: nfa5 Pages: 1 -->
<svg width="300pt" height="160pt"
 viewBox="0.00 0.00 300.00 160.00" xmlns="http://www.w3.org/2000/svg" xmlns:xlink="http://www.w3.org/1999/xlink">
<g id="graph0" class="graph" transform="scale(1 1) rotate(0) translate(4 156)">
<title>nfa5</title>
<polygon fill="white" stroke="none" points="-4,4 -4,-156 296,-156 296,4 -4,4"/>
<!-- 2 -->
<g id="node1" class="node"><title>2</title>
<ellipse fill="none" stroke="black" cx="270" cy="-83" rx="18" ry="18"/>
<ellipse fill="none" stroke="black" cx="270" cy="-83" rx="22" ry="22"/>
<text text-anchor="middle" x="270" y="-78.8" font-family="Helvetica,Arial,sans-serif" font-size="14.00">2</text>
</g>
<!-- 3 -->
<g id="node2" class="node"><title>3</title>
<ellipse fill="none" stroke="black" cx="182" cy="-22" rx="18" ry="18"/>
<ellipse fill="none" stroke="black" cx="182" cy="-22" rx="22" ry="22"/>
<text text-anchor="middle" x="182" y="-17.8" font-family="Helvetica,Arial,sans-serif" font-size="14.00">3</text>
</g>
<!-- 2&#45;&gt;3 -->
<g id="edge5" class="edge"><title>2&#45;&gt;3</title>
<path fill="none" stroke="black" d="M254.332,-67.148C247.37,-60.1532 238.687,-52.144 230,-46 224.271,-41.9477 217.762,-38.1719 211.454,-34.8698"/>
<polygon fill="black" stroke="black" points="212.981,-31.7199 202.469,-30.3938 209.859,-37.9856 212.981,-31.7199"/>
<text text-anchor="middle" x="226" y="-48.8" font-family="Helvetica,Arial,sans-serif" font-size="14.00">ε</text>
</g>
<!-- 4 -->
<g id="node6" class="node"><title>4</title>
<ellipse fill="none" stroke="black" cx="182" cy="-80" rx="18" ry="18"/>
<text text-anchor="middle" x="182" y="-75.8" font-family="Helvetica,Arial,sans-serif" font-size="14.00">4</text>
</g>
<!-- 2&#45;&gt;4 -->
<g id="edge7" class="edge"><title>2&#45;&gt;4</title>
<path fill="none" stroke="black" d="M247.742,-82.2584C236.431,-81.8639 222.397,-81.3743 210.29,-80.952"/>
<polygon fill="black" stroke="black" points="210.379,-77.453 200.263,-80.6022 210.135,-84.4488 210.379,-77.453"/>
<text text-anchor="middle" x="226" y="-84.8" font-family="Helvetica,Arial,sans-serif" font-size="14.00">b</text>
</g>
<!-- 1 -->
<g id="node5" class="node"><title>1</title>
<ellipse fill="none" stroke="black" cx="98" cy="-99" rx="18" ry="18"/>
<text text-anchor="middle" x="98" y="-94.8" font-family="Helvetica,Arial,sans-serif" font-size="14.00">1</text>
</g>
<!-- 3&#45;&gt;1 -->
<g id="edge6" class="edge"><title>3&#45;&gt;1</title>
<path fill="none" stroke="black" d="M165.19,-36.8464C152.074,-49.1621 133.344,-66.7501 119.153,-80.0755"/>
<polygon fill="black" stroke="black" points="116.695,-77.5825 111.801,-86.9793 121.487,-82.6854 116.695,-77.5825"/>
<text text-anchor="middle" x="138" y="-68.8" font-family="Helvetica,Arial,sans-serif" font-size="14.00">a</text>
</g>
<!-- ENTRY -->
<g id="node3" class="node"><title>ENTRY</title>
<ellipse fill="black" stroke="black" cx="98" cy="-151" rx="1.8" ry="1.8"/>
</g>
<!-- 0 -->
<g id="node4" class="node"><title>0</title>
<ellipse fill="none" stroke="black" cx="18" cy="-122" rx="18" ry="18"/>
<text text-anchor="middle" x="18" y="-117.8" font-family="Helvetica,Arial,sans-serif" font-size="14.00">0</text>
</g>
<!-- ENTRY&#45;&gt;0 -->
<g id="edge1" class="edge"><title>ENTRY&#45;&gt;0</title>
<path fill="none" stroke="black" d="M96.124,-150.674C91.0611,-148.792 65.0591,-139.125 44.6279,-131.528"/>
<polygon fill="black" stroke="black" points="45.7545,-128.213 35.1617,-128.009 43.3151,-134.774 45.7545,-128.213"/>
</g>
<!-- 0&#45;&gt;1 -->
<g id="edge2" class="edge"><title>0&#45;&gt;1</title>
<path fill="none" stroke="black" d="M35.5179,-117.129C45.751,-114.112 59.1199,-110.17 70.7768,-106.732"/>
<polygon fill="black" stroke="black" points="71.8564,-110.063 80.4582,-103.878 69.8766,-103.349 71.8564,-110.063"/>
<text text-anchor="middle" x="58" y="-114.8" font-family="Helvetica,Arial,sans-serif" font-size="14.00">a</text>
</g>
<!-- 1&#45;&gt;2 -->
<g id="edge4" class="edge"><title>1&#45;&gt;2</title>
<path fill="none" stroke="black" d="M116.032,-101.839C128.234,-103.724 145.078,-106.026 160,-107 191.2,-109.037 200.493,-110.339 230,-100 233.379,-98.8162 236.876,-97.4712 240.326,-96.0686"/>
<polygon fill="black" stroke="black" points="241.95,-99.1812 249.785,-92.0488 239.213,-92.7387 241.95,-99.1812"/>
<text text-anchor="middle" x="182" y="-111.8" font-family="Helvetica,Arial,sans-serif" font-size="14.00">b</text>
</g>
<!-- 1&#45;&gt;0 -->
<g id="edge3" class="edge"><title>1&#45;&gt;0</title>
<path fill="none" stroke="black" d="M81.1029,-92.6226C72.8258,-90.2383 62.6544,-88.7985 54,-92 48.1336,-94.1701 42.587,-97.8114 37.7117,-101.823"/>
<polygon fill="black" stroke="black" points="35.193,-99.3845 30.2026,-108.73 39.932,-104.536 35.193,-99.3845"/>
<text text-anchor="middle" x="58" y="-94.8" font-family="Helvetica,Arial,sans-serif" font-size="14.00">ε</text>
</g>
<!-- 4&#45;&gt;2 -->
<g id="edge8" class="edge"><title>4&#45;&gt;2</title>
<path fill="none" stroke="black" d="M197.595,-70.5751C206.764,-65.7768 218.913,-61.443 230,-64 233.743,-64.8632 237.542,-66.1366 241.227,-67.6224"/>
<polygon fill="black" stroke="black" points="240.047,-70.9316 250.596,-71.9159 242.963,-64.568 240.047,-70.9316"/>
<text text-anchor="middle" x="226" y="-66.8" font-family="Helvetica,Arial,sans-serif" font-size="14.00">ε</text>
</g>
</g>
</svg>
