<?xml version="1.0" encoding="UTF-8" standalone="no"?>
<!DOCTYPE svg PUBLIC "-//W3C//DTD SVG 1.1//EN"
 "http://www.w3.org/Graphics/SVG/1.1/DTD/svg11.dtd">
<!-- Generated by graphviz version 2.36.0 (20140111.2315)
 -->
<!-- Title: nfa6 Pages: 1 -->
<svg width="254pt" height="80pt"
 viewBox="0.00 0.00 254.00 80.00" xmlns="http://www.w3.org/2000/svg" xmlns:xlink="http://www.w3.org/1999/xlink">
<g id="graph0" class="graph" transform="scale(1 1) rotate(0) translate(4 76)">
<title>nfa6</title>
<polygon fill="white" stroke="none" points="-4,4 -4,-76 250,-76 250,4 -4,4"/>
<!-- 3 -->
<g id="node1" class="node"><title>3</title>
<ellipse fill="none" stroke="black" cx="224" cy="-22" rx="18" ry="18"/>
<ellipse fill="none" stroke="black" cx="224" cy="-22" rx="22" ry="22"/>
<text text-anchor="middle" x="224" y="-17.8" font-family="Helvetica,Arial,sans-serif" font-size="14.00">3</text>
</g>
<!-- ENTRY -->
<g id="node2" class="node"><title>ENTRY</title>
<ellipse fill="black" stroke="black" cx="2" cy="-22" rx="1.8" ry="1.8"/>
</g>
<!-- 1 -->
<g id="node3" class="node"><title>1</title>
<ellipse fill="none" stroke="black" cx="60" cy="-22" rx="18" ry="18"/>
<text text-anchor="middle" x="60" y="-17.8" font-family="Helvetica,Arial,sans-serif" font-size="14.00">1</text>
</g>
<!-- ENTRY&#45;&gt;1 -->
<g id="edge1" class="edge"><title>ENTRY&#45;&gt;1</title>
<path fill="none" stroke="black" d="M3.97198,-22C7.43184,-22 19.5845,-22 31.5919,-22"/>
<polygon fill="black" stroke="black" points="31.8844,-25.5001 41.8843,-22 31.8843,-18.5001 31.8844,-25.5001"/>
</g>
<!-- 1&#45;&gt;1 -->
<g id="edge2" class="edge"><title>1&#45;&gt;1</title>
<path fill="none" stroke="black" d="M53.6208,-39.0373C52.3189,-48.8579 54.4453,-58 60,-58 63.4717,-58 65.6042,-54.4289 66.3975,-49.3529"/>
<polygon fill="black" stroke="black" points="69.8971,-49.031 66.3792,-39.0373 62.8971,-49.0435 69.8971,-49.031"/>
<text text-anchor="middle" x="60" y="-60.8" font-family="Helvetica,Arial,sans-serif" font-size="14.00">a,b</text>
</g>
<!-- 2 -->
<g id="node4" class="node"><title>2</title>
<ellipse fill="none" stroke="black" cx="140" cy="-22" rx="18" ry="18"/>
<text text-anchor="middle" x="140" y="-17.8" font-family="Helvetica,Arial,sans-serif" font-size="14.00">2</text>
</g>
<!-- 1&#45;&gt;2 -->
<g id="edge3" class="edge"><title>1&#45;&gt;2</title>
<path fill="none" stroke="black" d="M78.3107,-22C88.1062,-22 100.578,-22 111.665,-22"/>
<polygon fill="black" stroke="black" points="111.738,-25.5001 121.738,-22 111.738,-18.5001 111.738,-25.5001"/>
<text text-anchor="middle" x="100" y="-24.8" font-family="Helvetica,Arial,sans-serif" font-size="14.00">b</text>
</g>
<!-- 2&#45;&gt;3 -->
<g id="edge4" class="edge"><title>2&#45;&gt;3</title>
<path fill="none" stroke="black" d="M158.39,-22C168.108,-22 180.511,-22 191.847,-22"/>
<polygon fill="black" stroke="black" points="191.85,-25.5001 201.85,-22 191.85,-18.5001 191.85,-25.5001"/>
<text text-anchor="middle" x="180" y="-24.8" font-family="Helvetica,Arial,sans-serif" font-size="14.00">b</text>
</g>
</g>
</svg>
