<?xml version="1.0" encoding="UTF-8" standalone="no"?>
<!DOCTYPE svg PUBLIC "-//W3C//DTD SVG 1.1//EN"
 "http://www.w3.org/Graphics/SVG/1.1/DTD/svg11.dtd">
<!-- Generated by graphviz version 2.36.0 (20140111.2315)
 -->
<!-- Title: nfa7 Pages: 1 -->
<svg width="776pt" height="172pt"
 viewBox="0.00 0.00 776.00 172.00" xmlns="http://www.w3.org/2000/svg" xmlns:xlink="http://www.w3.org/1999/xlink">
<g id="graph0" class="graph" transform="scale(1 1) rotate(0) translate(4 168)">
<title>nfa7</title>
<polygon fill="white" stroke="none" points="-4,4 -4,-168 772,-168 772,4 -4,4"/>
<!-- S1 -->
<g id="node1" class="node"><title>S1</title>
<ellipse fill="none" stroke="black" cx="743" cy="-43" rx="20.8598" ry="20.8598"/>
<ellipse fill="none" stroke="black" cx="743" cy="-43" rx="24.8475" ry="24.8475"/>
<text text-anchor="middle" x="743" y="-38.8" font-family="Helvetica,Arial,sans-serif" font-size="14.00">S1</text>
</g>
<!-- ENTRY -->
<g id="node2" class="node"><title>ENTRY</title>
<ellipse fill="black" stroke="black" cx="2" cy="-47" rx="1.8" ry="1.8"/>
</g>
<!-- S0 -->
<g id="node3" class="node"><title>S0</title>
<ellipse fill="none" stroke="black" cx="63" cy="-47" rx="20.8476" ry="20.8476"/>
<text text-anchor="middle" x="63" y="-42.8" font-family="Helvetica,Arial,sans-serif" font-size="14.00">S0</text>
</g>
<!-- ENTRY&#45;&gt;S0 -->
<g id="edge1" class="edge"><title>ENTRY&#45;&gt;S0</title>
<path fill="none" stroke="black" d="M4.02406,-47C7.53872,-47 19.5676,-47 31.7643,-47"/>
<polygon fill="black" stroke="black" points="31.8658,-50.5001 41.8657,-47 31.8657,-43.5001 31.8658,-50.5001"/>
</g>
<!-- 1 -->
<g id="node4" class="node"><title>1</title>
<ellipse fill="none" stroke="black" cx="146" cy="-77" rx="18" ry="18"/>
<text text-anchor="middle" x="146" y="-72.8" font-family="Helvetica,Arial,sans-serif" font-size="14.00">1</text>
</g>
<!-- S0&#45;&gt;1 -->
<g id="edge2" class="edge"><title>S0&#45;&gt;1</title>
<path fill="none" stroke="black" d="M82.7866,-53.958C93.6671,-57.9878 107.516,-63.117 119.384,-67.5126"/>
<polygon fill="black" stroke="black" points="118.186,-70.8011 128.779,-70.9922 120.617,-64.2368 118.186,-70.8011"/>
<text text-anchor="middle" x="106" y="-66.8" font-family="Helvetica,Arial,sans-serif" font-size="14.00">ε</text>
</g>
<!-- 2 -->
<g id="node5" class="node"><title>2</title>
<ellipse fill="none" stroke="black" cx="200" cy="-28" rx="18" ry="18"/>
<text text-anchor="middle" x="200" y="-23.8" font-family="Helvetica,Arial,sans-serif" font-size="14.00">2</text>
</g>
<!-- S0&#45;&gt;2 -->
<g id="edge3" class="edge"><title>S0&#45;&gt;2</title>
<path fill="none" stroke="black" d="M83.9197,-44.1965C107.255,-40.9122 146.028,-35.4554 172.04,-31.7943"/>
<polygon fill="black" stroke="black" points="172.577,-35.2533 181.992,-30.3937 171.602,-28.3216 172.577,-35.2533"/>
<text text-anchor="middle" x="106" y="-44.8" font-family="Helvetica,Arial,sans-serif" font-size="14.00">ε</text>
</g>
<!-- 3 -->
<g id="node6" class="node"><title>3</title>
<ellipse fill="none" stroke="black" cx="254" cy="-93" rx="18" ry="18"/>
<text text-anchor="middle" x="254" y="-88.8" font-family="Helvetica,Arial,sans-serif" font-size="14.00">3</text>
</g>
<!-- 1&#45;&gt;3 -->
<g id="edge4" class="edge"><title>1&#45;&gt;3</title>
<path fill="none" stroke="black" d="M164.031,-79.5707C180.721,-82.0899 206.421,-85.9692 225.916,-88.9119"/>
<polygon fill="black" stroke="black" points="225.601,-92.4039 236.012,-90.4357 226.646,-85.4823 225.601,-92.4039"/>
<text text-anchor="middle" x="200" y="-90.8" font-family="Helvetica,Arial,sans-serif" font-size="14.00">a</text>
</g>
<!-- 4 -->
<g id="node7" class="node"><title>4</title>
<ellipse fill="none" stroke="black" cx="308" cy="-21" rx="18" ry="18"/>
<text text-anchor="middle" x="308" y="-16.8" font-family="Helvetica,Arial,sans-serif" font-size="14.00">4</text>
</g>
<!-- 2&#45;&gt;4 -->
<g id="edge5" class="edge"><title>2&#45;&gt;4</title>
<path fill="none" stroke="black" d="M218.031,-26.8753C234.721,-25.7732 260.421,-24.076 279.916,-22.7886"/>
<polygon fill="black" stroke="black" points="280.264,-26.2733 290.012,-22.1219 279.803,-19.2885 280.264,-26.2733"/>
<text text-anchor="middle" x="254" y="-28.8" font-family="Helvetica,Arial,sans-serif" font-size="14.00">c</text>
</g>
<!-- 5 -->
<g id="node8" class="node"><title>5</title>
<ellipse fill="none" stroke="black" cx="362" cy="-99" rx="18" ry="18"/>
<text text-anchor="middle" x="362" y="-94.8" font-family="Helvetica,Arial,sans-serif" font-size="14.00">5</text>
</g>
<!-- 3&#45;&gt;5 -->
<g id="edge6" class="edge"><title>3&#45;&gt;5</title>
<path fill="none" stroke="black" d="M272.031,-93.964C288.721,-94.9087 314.421,-96.3635 333.916,-97.4669"/>
<polygon fill="black" stroke="black" points="333.83,-100.968 344.012,-98.0384 334.225,-93.9788 333.83,-100.968"/>
<text text-anchor="middle" x="308" y="-99.8" font-family="Helvetica,Arial,sans-serif" font-size="14.00">ε</text>
</g>
<!-- 6 -->
<g id="node9" class="node"><title>6</title>
<ellipse fill="none" stroke="black" cx="416" cy="-20" rx="18" ry="18"/>
<text text-anchor="middle" x="416" y="-15.8" font-family="Helvetica,Arial,sans-serif" font-size="14.00">6</text>
</g>
<!-- 4&#45;&gt;6 -->
<g id="edge7" class="edge"><title>4&#45;&gt;6</title>
<path fill="none" stroke="black" d="M326.031,-20.8393C342.622,-20.6828 368.117,-20.4423 387.569,-20.2588"/>
<polygon fill="black" stroke="black" points="387.693,-23.7579 397.659,-20.1636 387.627,-16.7582 387.693,-23.7579"/>
</g>
<!-- 7 -->
<g id="node10" class="node"><title>7</title>
<ellipse fill="none" stroke="black" cx="470" cy="-146" rx="18" ry="18"/>
<text text-anchor="middle" x="470" y="-141.8" font-family="Helvetica,Arial,sans-serif" font-size="14.00">7</text>
</g>
<!-- 5&#45;&gt;7 -->
<g id="edge8" class="edge"><title>5&#45;&gt;7</title>
<path fill="none" stroke="black" d="M378.641,-105.935C395.863,-113.572 423.795,-125.956 444.049,-134.937"/>
<polygon fill="black" stroke="black" points="442.735,-138.183 453.295,-139.037 445.572,-131.784 442.735,-138.183"/>
<text text-anchor="middle" x="416" y="-132.8" font-family="Helvetica,Arial,sans-serif" font-size="14.00">ε</text>
</g>
<!-- 9 -->
<g id="node13" class="node"><title>9</title>
<ellipse fill="none" stroke="black" cx="662" cy="-84" rx="18" ry="18"/>
<text text-anchor="middle" x="662" y="-79.8" font-family="Helvetica,Arial,sans-serif" font-size="14.00">9</text>
</g>
<!-- 5&#45;&gt;9 -->
<g id="edge12" class="edge"><title>5&#45;&gt;9</title>
<path fill="none" stroke="black" d="M380.31,-98.1287C430.01,-95.627 573.438,-88.4075 633.759,-85.3712"/>
<polygon fill="black" stroke="black" points="634.202,-88.8534 644.014,-84.855 633.85,-81.8622 634.202,-88.8534"/>
<text text-anchor="middle" x="526" y="-94.8" font-family="Helvetica,Arial,sans-serif" font-size="14.00">ε</text>
</g>
<!-- 10 -->
<g id="node12" class="node"><title>10</title>
<ellipse fill="none" stroke="black" cx="526" cy="-19" rx="19.8871" ry="19.8871"/>
<text text-anchor="middle" x="526" y="-14.8" font-family="Helvetica,Arial,sans-serif" font-size="14.00">10</text>
</g>
<!-- 6&#45;&gt;10 -->
<g id="edge10" class="edge"><title>6&#45;&gt;10</title>
<path fill="none" stroke="black" d="M434.352,-19.8393C450.854,-19.6865 476.001,-19.4537 495.626,-19.272"/>
<polygon fill="black" stroke="black" points="495.903,-22.7697 505.871,-19.1771 495.839,-15.77 495.903,-22.7697"/>
<text text-anchor="middle" x="470" y="-22.8" font-family="Helvetica,Arial,sans-serif" font-size="14.00">d</text>
</g>
<!-- 8 -->
<g id="node11" class="node"><title>8</title>
<ellipse fill="none" stroke="black" cx="582" cy="-146" rx="18" ry="18"/>
<text text-anchor="middle" x="582" y="-141.8" font-family="Helvetica,Arial,sans-serif" font-size="14.00">8</text>
</g>
<!-- 7&#45;&gt;8 -->
<g id="edge9" class="edge"><title>7&#45;&gt;8</title>
<path fill="none" stroke="black" d="M488.188,-146C505.785,-146 533.393,-146 553.929,-146"/>
<polygon fill="black" stroke="black" points="553.933,-149.5 563.933,-146 553.933,-142.5 553.933,-149.5"/>
</g>
<!-- 8&#45;&gt;9 -->
<g id="edge11" class="edge"><title>8&#45;&gt;9</title>
<path fill="none" stroke="black" d="M597.128,-135.863C605.609,-129.686 616.549,-121.552 626,-114 630.611,-110.315 635.47,-106.264 640.051,-102.363"/>
<polygon fill="black" stroke="black" points="642.593,-104.793 647.885,-95.6148 638.024,-99.4897 642.593,-104.793"/>
<text text-anchor="middle" x="622" y="-122.8" font-family="Helvetica,Arial,sans-serif" font-size="14.00">ε</text>
</g>
<!-- 10&#45;&gt;S1 -->
<g id="edge15" class="edge"><title>10&#45;&gt;S1</title>
<path fill="none" stroke="black" d="M546.08,-21.1298C582.501,-25.1955 662.37,-34.111 708.089,-39.2146"/>
<polygon fill="black" stroke="black" points="707.788,-42.7027 718.115,-40.3337 708.565,-35.7459 707.788,-42.7027"/>
</g>
<!-- 9&#45;&gt;S1 -->
<g id="edge14" class="edge"><title>9&#45;&gt;S1</title>
<path fill="none" stroke="black" d="M678.232,-76.0948C687.62,-71.2227 699.993,-64.8009 711.341,-58.9117"/>
<polygon fill="black" stroke="black" points="713.28,-61.8488 720.543,-54.1357 710.055,-55.6357 713.28,-61.8488"/>
</g>
<!-- 9&#45;&gt;5 -->
<g id="edge13" class="edge"><title>9&#45;&gt;5</title>
<path fill="none" stroke="black" d="M643.898,-81.6538C621.473,-78.7064 580.881,-73.815 546,-72 479.714,-68.551 463.178,-79.4479 398,-92 395.298,-92.5204 392.48,-93.0708 389.668,-93.6253"/>
<polygon fill="black" stroke="black" points="388.849,-90.2195 379.725,-95.6044 390.216,-97.0848 388.849,-90.2195"/>
<text text-anchor="middle" x="526" y="-74.8" font-family="Helvetica,Arial,sans-serif" font-size="14.00">ε</text>
</g>
</g>
</svg>
