<?xml version="1.0" encoding="UTF-8" standalone="no"?>
<!DOCTYPE svg PUBLIC "-//W3C//DTD SVG 1.1//EN"
 "http://www.w3.org/Graphics/SVG/1.1/DTD/svg11.dtd">
<!-- Generated by graphviz version 2.36.0 (20140111.2315)
 -->
<!-- Title: nfa7 Pages: 1 -->
<svg width="782pt" height="172pt"
 viewBox="0.00 0.00 782.00 172.00" xmlns="http://www.w3.org/2000/svg" xmlns:xlink="http://www.w3.org/1999/xlink">
<g id="graph0" class="graph" transform="scale(1 1) rotate(0) translate(4 168)">
<title>nfa7</title>
<polygon fill="white" stroke="none" points="-4,4 -4,-168 778,-168 778,4 -4,4"/>
<!-- S1 -->
<g id="node1" class="node"><title>S1</title>
<ellipse fill="none" stroke="black" cx="749" cy="-45" rx="20.8598" ry="20.8598"/>
<ellipse fill="none" stroke="black" cx="749" cy="-45" rx="24.8475" ry="24.8475"/>
<text text-anchor="middle" x="749" y="-40.8" font-family="Helvetica,Arial,sans-serif" font-size="14.00">S1</text>
</g>
<!-- ENTRY -->
<g id="node2" class="node"><title>ENTRY</title>
<ellipse fill="black" stroke="black" cx="2" cy="-50" rx="1.8" ry="1.8"/>
</g>
<!-- S0 -->
<g id="node3" class="node"><title>S0</title>
<ellipse fill="none" stroke="black" cx="63" cy="-50" rx="20.8476" ry="20.8476"/>
<text text-anchor="middle" x="63" y="-45.8" font-family="Helvetica,Arial,sans-serif" font-size="14.00">S0</text>
</g>
<!-- ENTRY&#45;&gt;S0 -->
<g id="edge1" class="edge"><title>ENTRY&#45;&gt;S0</title>
<path fill="none" stroke="black" d="M4.02406,-50C7.53872,-50 19.5676,-50 31.7643,-50"/>
<polygon fill="black" stroke="black" points="31.8658,-53.5001 41.8657,-50 31.8657,-46.5001 31.8658,-53.5001"/>
</g>
<!-- 1 -->
<g id="node4" class="node"><title>1</title>
<ellipse fill="none" stroke="black" cx="146" cy="-80" rx="18" ry="18"/>
<text text-anchor="middle" x="146" y="-75.8" font-family="Helvetica,Arial,sans-serif" font-size="14.00">1</text>
</g>
<!-- S0&#45;&gt;1 -->
<g id="edge2" class="edge"><title>S0&#45;&gt;1</title>
<path fill="none" stroke="black" d="M82.7866,-56.958C93.6671,-60.9878 107.516,-66.117 119.384,-70.5126"/>
<polygon fill="black" stroke="black" points="118.186,-73.8011 128.779,-73.9922 120.617,-67.2368 118.186,-73.8011"/>
<text text-anchor="middle" x="106" y="-69.8" font-family="Helvetica,Arial,sans-serif" font-size="14.00">ε</text>
</g>
<!-- 2 -->
<g id="node5" class="node"><title>2</title>
<ellipse fill="none" stroke="black" cx="200" cy="-31" rx="18" ry="18"/>
<text text-anchor="middle" x="200" y="-26.8" font-family="Helvetica,Arial,sans-serif" font-size="14.00">2</text>
</g>
<!-- S0&#45;&gt;2 -->
<g id="edge3" class="edge"><title>S0&#45;&gt;2</title>
<path fill="none" stroke="black" d="M83.9197,-47.1965C107.255,-43.9122 146.028,-38.4554 172.04,-34.7943"/>
<polygon fill="black" stroke="black" points="172.577,-38.2533 181.992,-33.3937 171.602,-31.3216 172.577,-38.2533"/>
<text text-anchor="middle" x="106" y="-47.8" font-family="Helvetica,Arial,sans-serif" font-size="14.00">ε</text>
</g>
<!-- 3 -->
<g id="node6" class="node"><title>3</title>
<ellipse fill="none" stroke="black" cx="254" cy="-81" rx="18" ry="18"/>
<text text-anchor="middle" x="254" y="-76.8" font-family="Helvetica,Arial,sans-serif" font-size="14.00">3</text>
</g>
<!-- 1&#45;&gt;3 -->
<g id="edge4" class="edge"><title>1&#45;&gt;3</title>
<path fill="none" stroke="black" d="M164.031,-80.1607C180.622,-80.3172 206.117,-80.5577 225.569,-80.7412"/>
<polygon fill="black" stroke="black" points="225.627,-84.2418 235.659,-80.8364 225.693,-77.2421 225.627,-84.2418"/>
<text text-anchor="middle" x="200" y="-83.8" font-family="Helvetica,Arial,sans-serif" font-size="14.00">a</text>
</g>
<!-- 4 -->
<g id="node7" class="node"><title>4</title>
<ellipse fill="none" stroke="black" cx="308" cy="-31" rx="18" ry="18"/>
<text text-anchor="middle" x="308" y="-26.8" font-family="Helvetica,Arial,sans-serif" font-size="14.00">4</text>
</g>
<!-- 2&#45;&gt;4 -->
<g id="edge5" class="edge"><title>2&#45;&gt;4</title>
<path fill="none" stroke="black" d="M218.031,-31C234.622,-31 260.117,-31 279.569,-31"/>
<polygon fill="black" stroke="black" points="279.659,-34.5001 289.659,-31 279.659,-27.5001 279.659,-34.5001"/>
<text text-anchor="middle" x="254" y="-33.8" font-family="Helvetica,Arial,sans-serif" font-size="14.00">c</text>
</g>
<!-- 5 -->
<g id="node8" class="node"><title>5</title>
<ellipse fill="none" stroke="black" cx="362" cy="-96" rx="18" ry="18"/>
<text text-anchor="middle" x="362" y="-91.8" font-family="Helvetica,Arial,sans-serif" font-size="14.00">5</text>
</g>
<!-- 3&#45;&gt;5 -->
<g id="edge6" class="edge"><title>3&#45;&gt;5</title>
<path fill="none" stroke="black" d="M272.031,-83.41C288.721,-85.7718 314.421,-89.4087 333.916,-92.1674"/>
<polygon fill="black" stroke="black" points="333.62,-95.6602 344.012,-93.596 334.601,-88.7293 333.62,-95.6602"/>
<text text-anchor="middle" x="308" y="-93.8" font-family="Helvetica,Arial,sans-serif" font-size="14.00">ε</text>
</g>
<!-- 6 -->
<g id="node9" class="node"><title>6</title>
<ellipse fill="none" stroke="black" cx="416" cy="-24" rx="18" ry="18"/>
<text text-anchor="middle" x="416" y="-19.8" font-family="Helvetica,Arial,sans-serif" font-size="14.00">6</text>
</g>
<!-- 4&#45;&gt;6 -->
<g id="edge7" class="edge"><title>4&#45;&gt;6</title>
<path fill="none" stroke="black" d="M326.031,-29.8753C342.721,-28.7732 368.421,-27.076 387.916,-25.7886"/>
<polygon fill="black" stroke="black" points="388.264,-29.2733 398.012,-25.1219 387.803,-22.2885 388.264,-29.2733"/>
<text text-anchor="middle" x="362" y="-31.8" font-family="Helvetica,Arial,sans-serif" font-size="14.00">ε</text>
</g>
<!-- 7 -->
<g id="node10" class="node"><title>7</title>
<ellipse fill="none" stroke="black" cx="470" cy="-146" rx="18" ry="18"/>
<text text-anchor="middle" x="470" y="-141.8" font-family="Helvetica,Arial,sans-serif" font-size="14.00">7</text>
</g>
<!-- 5&#45;&gt;7 -->
<g id="edge8" class="edge"><title>5&#45;&gt;7</title>
<path fill="none" stroke="black" d="M378.248,-104.058C384.354,-107.228 391.476,-110.855 398,-114 413.093,-121.276 430.21,-129.006 443.856,-135.046"/>
<polygon fill="black" stroke="black" points="442.538,-138.29 453.1,-139.114 445.357,-131.883 442.538,-138.29"/>
<text text-anchor="middle" x="416" y="-133.8" font-family="Helvetica,Arial,sans-serif" font-size="14.00">ε</text>
</g>
<!-- 9 -->
<g id="node13" class="node"><title>9</title>
<ellipse fill="none" stroke="black" cx="662" cy="-84" rx="18" ry="18"/>
<text text-anchor="middle" x="662" y="-79.8" font-family="Helvetica,Arial,sans-serif" font-size="14.00">9</text>
</g>
<!-- 5&#45;&gt;9 -->
<g id="edge12" class="edge"><title>5&#45;&gt;9</title>
<path fill="none" stroke="black" d="M380.31,-95.303C429.893,-93.3063 572.764,-87.5531 633.332,-85.1142"/>
<polygon fill="black" stroke="black" points="633.791,-88.5986 643.642,-84.699 633.51,-81.6042 633.791,-88.5986"/>
<text text-anchor="middle" x="526" y="-93.8" font-family="Helvetica,Arial,sans-serif" font-size="14.00">ε</text>
</g>
<!-- 10 -->
<g id="node12" class="node"><title>10</title>
<ellipse fill="none" stroke="black" cx="526" cy="-19" rx="19.8871" ry="19.8871"/>
<text text-anchor="middle" x="526" y="-14.8" font-family="Helvetica,Arial,sans-serif" font-size="14.00">10</text>
</g>
<!-- 6&#45;&gt;10 -->
<g id="edge10" class="edge"><title>6&#45;&gt;10</title>
<path fill="none" stroke="black" d="M434.352,-23.1967C450.854,-22.4327 476.001,-21.2685 495.626,-20.3599"/>
<polygon fill="black" stroke="black" points="496.043,-23.8444 505.871,-19.8856 495.719,-16.8519 496.043,-23.8444"/>
<text text-anchor="middle" x="470" y="-25.8" font-family="Helvetica,Arial,sans-serif" font-size="14.00">d</text>
</g>
<!-- 8 -->
<g id="node11" class="node"><title>8</title>
<ellipse fill="none" stroke="black" cx="582" cy="-146" rx="18" ry="18"/>
<text text-anchor="middle" x="582" y="-141.8" font-family="Helvetica,Arial,sans-serif" font-size="14.00">8</text>
</g>
<!-- 7&#45;&gt;8 -->
<g id="edge9" class="edge"><title>7&#45;&gt;8</title>
<path fill="none" stroke="black" d="M488.188,-146C505.785,-146 533.393,-146 553.929,-146"/>
<polygon fill="black" stroke="black" points="553.933,-149.5 563.933,-146 553.933,-142.5 553.933,-149.5"/>
<text text-anchor="middle" x="526" y="-148.8" font-family="Helvetica,Arial,sans-serif" font-size="14.00">b</text>
</g>
<!-- 8&#45;&gt;9 -->
<g id="edge11" class="edge"><title>8&#45;&gt;9</title>
<path fill="none" stroke="black" d="M597.128,-135.863C605.609,-129.686 616.549,-121.552 626,-114 630.611,-110.315 635.47,-106.264 640.051,-102.363"/>
<polygon fill="black" stroke="black" points="642.593,-104.793 647.885,-95.6148 638.024,-99.4897 642.593,-104.793"/>
<text text-anchor="middle" x="622" y="-122.8" font-family="Helvetica,Arial,sans-serif" font-size="14.00">ε</text>
</g>
<!-- 10&#45;&gt;S1 -->
<g id="edge15" class="edge"><title>10&#45;&gt;S1</title>
<path fill="none" stroke="black" d="M545.842,-21.2167C583.107,-25.6008 666.69,-35.4341 713.881,-40.986"/>
<polygon fill="black" stroke="black" points="713.588,-44.4756 723.928,-42.168 714.406,-37.5235 713.588,-44.4756"/>
<text text-anchor="middle" x="622" y="-33.8" font-family="Helvetica,Arial,sans-serif" font-size="14.00">ε</text>
</g>
<!-- 9&#45;&gt;S1 -->
<g id="edge14" class="edge"><title>9&#45;&gt;S1</title>
<path fill="none" stroke="black" d="M678.59,-76.8468C689.312,-71.9275 703.915,-65.2274 716.961,-59.2417"/>
<polygon fill="black" stroke="black" points="718.478,-62.3965 726.107,-55.0451 715.558,-56.0342 718.478,-62.3965"/>
<text text-anchor="middle" x="702" y="-69.8" font-family="Helvetica,Arial,sans-serif" font-size="14.00">ε</text>
</g>
<!-- 9&#45;&gt;5 -->
<g id="edge13" class="edge"><title>9&#45;&gt;5</title>
<path fill="none" stroke="black" d="M643.906,-81.4584C621.488,-78.2656 580.905,-72.9667 546,-71 528.25,-69.9999 523.711,-69.4635 506,-71 465.034,-74.554 418.201,-83.7326 389.619,-89.9227"/>
<polygon fill="black" stroke="black" points="388.62,-86.5589 379.608,-92.1309 390.128,-93.3945 388.62,-86.5589"/>
<text text-anchor="middle" x="526" y="-73.8" font-family="Helvetica,Arial,sans-serif" font-size="14.00">ε</text>
</g>
</g>
</svg>
